<svg xmlns="http://www.w3.org/2000/svg" viewBox="0 0 32 32">
  <g fill="none" fill-rule="evenodd">
    <circle cx="16" cy="16" r="16" fill="#2775CA"/>
    <path fill="#FFF" d="M16 6.204l-.225.013c-1.916.113-3.737.832-5.228 1.992l-.185.151.127.212c.088.145.163.297.237.452l.075.16.195-.151a8.534 8.534 0 0 1 4.451-1.727l.178-.018v9.287h-1.594v.65h1.594v2.162h-1.594v.65h1.594v4.038h.65v-4.038h1.593v-.65h-1.594v-2.162h1.594v-.65h-1.594V6.204zm6.68 5.251l-.127.213c-.076.145-.151.296-.239.44l-.88.166.212.138a8.442 8.442 0 0 1 2.91 6.357c0 4.675-3.807 8.47-8.496 8.47-.45 0-.899-.037-1.335-.1l-.199-.03-.026.3a9.358 9.358 0 0 0 .077.777l.034.21.213.025a9.202 9.202 0 0 0 1.236.088c5.132 0 9.31-4.155 9.31-9.266a9.355 9.355 0 0 0-3.108-6.969l-.174-.15zm-15.76.788l-.027-.212-.2-.027a9.294 9.294 0 0 0-1.26-.087c-5.133 0-9.31 4.154-9.31 9.266 0 2.753 1.23 5.338 3.26 7.056l.162.138.126-.212c.076-.15.15-.297.237-.44l.088-.166-.212-.138A8.531 8.531 0 0 1 7 17.073a8.483 8.483 0 0 1 8.496-8.47c.45 0 .9.037 1.335.1l.2.025.025-.199c.02-.177.049-.353.076-.527.025-.15.05-.3.088-.452z" fill-rule="nonzero"/>
  </g>
</svg> 