<svg width="32" height="32" viewBox="0 0 32 32" fill="none" xmlns="http://www.w3.org/2000/svg">
  <circle cx="16" cy="16" r="16" fill="#8247E5"/>
  <path d="M21.5 13.5L17.9 11.3C17.2 10.9 16.6 10.7 16 10.7C15.4 10.7 14.8 10.9 14.1 11.3L10.5 13.5C9.8 13.9 9.5 14.4 9.5 15C9.5 15.6 9.8 16.1 10.5 16.5L14.1 18.7C14.8 19.1 15.4 19.3 16 19.3C16.6 19.3 17.2 19.1 17.9 18.7L21.5 16.5C22.2 16.1 22.5 15.6 22.5 15C22.5 14.4 22.2 13.9 21.5 13.5Z" fill="white"/>
  <path d="M11.9 20.2L13.3 21C13.7 21.2 14 21.3 14.4 21.3C14.7 21.3 15 21.2 15.4 21L16.8 20.2C17.2 20 17.4 19.7 17.4 19.4C17.4 19.1 17.2 18.8 16.8 18.6L15.4 17.8C15 17.6 14.7 17.5 14.4 17.5C14 17.5 13.7 17.6 13.3 17.8L11.9 18.6C11.5 18.8 11.3 19.1 11.3 19.4C11.3 19.7 11.5 20 11.9 20.2Z" fill="white"/>
  <path d="M16.6 8.8L15.2 8C14.8 7.8 14.5 7.7 14.2 7.7C13.8 7.7 13.5 7.8 13.1 8L11.7 8.8C11.3 9 11.1 9.3 11.1 9.6C11.1 9.9 11.3 10.2 11.7 10.4L13.1 11.2C13.5 11.4 13.8 11.5 14.2 11.5C14.5 11.5 14.8 11.4 15.2 11.2L16.6 10.4C17 10.2 17.2 9.9 17.2 9.6C17.2 9.3 17 9 16.6 8.8Z" fill="white"/>
</svg> 